<?xml version="1.0" encoding="UTF-8" standalone="no"?>
<!-- Created with Inkscape (http://www.inkscape.org/) -->

<svg
   version="1.1"
   id="svg103"
   xml:space="preserve"
   width="459.45401"
   height="179.099"
   viewBox="0 0 459.45397 179.099"
   sodipodi:docname="Logo inaz-vettoriale.svg"
   inkscape:version="1.1.1 (3bf5ae0d25, 2021-09-20)"
   xmlns:inkscape="http://www.inkscape.org/namespaces/inkscape"
   xmlns:sodipodi="http://sodipodi.sourceforge.net/DTD/sodipodi-0.dtd"
   xmlns="http://www.w3.org/2000/svg"
   xmlns:svg="http://www.w3.org/2000/svg"><defs
     id="defs107" /><sodipodi:namedview
     id="namedview105"
     pagecolor="#ffffff"
     bordercolor="#666666"
     borderopacity="1.0"
     inkscape:pageshadow="2"
     inkscape:pageopacity="0.0"
     inkscape:pagecheckerboard="0"
     showgrid="false"
     units="px"
     width="459.454px"
     inkscape:zoom="1.5483248"
     inkscape:cx="345.2118"
     inkscape:cy="144.99542"
     inkscape:window-width="2560"
     inkscape:window-height="1009"
     inkscape:window-x="-8"
     inkscape:window-y="-8"
     inkscape:window-maximized="1"
     inkscape:current-layer="g109" /><g
     id="g109"
     inkscape:groupmode="layer"
     inkscape:label="Logo inaz-vettoriale"
     transform="matrix(1.3333333,0,0,-1.3333333,0,258.66667)"><path
       d="M 344.59087,59.676018 H 0 V 194.00001 h 344.59087 z"
       style="fill:#c8192c;fill-opacity:1;fill-rule:nonzero;stroke:none;stroke-width:0.999591"
       id="path111" /><g
       id="g113"
       transform="matrix(0.99918192,0,0,0.99999998,189.00436,119.56331)"><path
         d="m 0,0 h -9.107 l 9.843,14.195 z m 98.195,32.035 0.019,0.006 H 40.783 l -0.036,-0.029 -5.942,-15.486 0.072,0.057 H 56.475 L 56.451,16.53 21.8,-14.019 19.302,32.041 H 13.109 1.661 -5.348 l -37.356,-47.001 17.847,47.001 h -21.612 l -9.427,-24.825 -8.213,24.825 h -21.145 l -18.809,-49.533 h 21.146 l 9.062,23.867 8.578,-23.867 h 20.56 1.051 22.431 l 3.936,5.678 h 16.686 l -0.295,-5.678 h 22.896 l -0.001,0.007 54.216,-0.004 5.857,15.305 0.057,0.041 H 59.43 l 0.058,0.099 z m -210.47,0.006 -18.809,-49.533 h 21.858 l 18.808,49.533 z"
         style="fill:#ffffff;fill-opacity:1;fill-rule:nonzero;stroke:none"
         id="path115" /></g></g></svg>
